<svg width="34" height="20" viewBox="0 0 34 20" fill="none" xmlns="http://www.w3.org/2000/svg">
<path d="M9.20817 17.1434H6.37484C5.98384 17.1434 5.6665 16.8234 5.6665 16.4291C5.6665 16.0348 5.98384 15.7148 6.37484 15.7148H9.20817C9.59917 15.7148 9.9165 16.0348 9.9165 16.4291C9.9165 16.8234 9.59917 17.1434 9.20817 17.1434Z" fill="#272829"/>
<path d="M32.229 17.1423H30.4581C30.0671 17.1423 29.7498 16.8223 29.7498 16.428C29.7498 16.0337 30.0671 15.7137 30.4581 15.7137H31.6411L32.5959 10.5823C32.5831 7.95659 30.359 5.71373 27.6248 5.71373H22.9739L20.72 15.7137H24.7915C25.1825 15.7137 25.4998 16.0337 25.4998 16.428C25.4998 16.8223 25.1825 17.1423 24.7915 17.1423H19.8331C19.6178 17.1423 19.4138 17.0437 19.2792 16.8737C19.1446 16.7052 19.0936 16.4823 19.1418 16.2709L21.7173 4.8423C21.791 4.51516 22.0771 4.28516 22.4086 4.28516H27.6248C31.1396 4.28516 33.9998 7.16944 33.9998 10.7137L32.9246 16.5594C32.8622 16.898 32.5704 17.1423 32.229 17.1423Z" fill="#272829"/>
<path d="M27.6252 20.0003C25.673 20.0003 24.0835 18.3989 24.0835 16.4289C24.0835 14.4589 25.673 12.8574 27.6252 12.8574C29.5773 12.8574 31.1668 14.4589 31.1668 16.4289C31.1668 18.3989 29.5773 20.0003 27.6252 20.0003ZM27.6252 14.286C26.4536 14.286 25.5002 15.2474 25.5002 16.4289C25.5002 17.6103 26.4536 18.5717 27.6252 18.5717C28.7967 18.5717 29.7502 17.6103 29.7502 16.4289C29.7502 15.2474 28.7967 14.286 27.6252 14.286Z" fill="#272829"/>
<path d="M12.0417 20.0003C10.0895 20.0003 8.5 18.3989 8.5 16.4289C8.5 14.4589 10.0895 12.8574 12.0417 12.8574C13.9938 12.8574 15.5833 14.4589 15.5833 16.4289C15.5833 18.3989 13.9938 20.0003 12.0417 20.0003ZM12.0417 14.286C10.8701 14.286 9.91667 15.2474 9.91667 16.4289C9.91667 17.6103 10.8701 18.5717 12.0417 18.5717C13.2133 18.5717 14.1667 17.6103 14.1667 16.4289C14.1667 15.2474 13.2133 14.286 12.0417 14.286Z" fill="#272829"/>
<path d="M9.2085 4.28599H3.54183C3.15083 4.28599 2.8335 3.96599 2.8335 3.57171C2.8335 3.17742 3.15083 2.85742 3.54183 2.85742H9.2085C9.5995 2.85742 9.91683 3.17742 9.91683 3.57171C9.91683 3.96599 9.5995 4.28599 9.2085 4.28599Z" fill="#272829"/>
<path d="M9.20817 8.57115H2.12484C1.73384 8.57115 1.4165 8.25115 1.4165 7.85686C1.4165 7.46258 1.73384 7.14258 2.12484 7.14258H9.20817C9.59917 7.14258 9.91651 7.46258 9.91651 7.85686C9.91651 8.25115 9.59917 8.57115 9.20817 8.57115Z" fill="#272829"/>
<path d="M9.20834 12.8583H0.708334C0.317333 12.8583 0 12.5383 0 12.144C0 11.7497 0.317333 11.4297 0.708334 11.4297H9.20834C9.59934 11.4297 9.91667 11.7497 9.91667 12.144C9.91667 12.5383 9.59934 12.8583 9.20834 12.8583Z" fill="#272829"/>
<path d="M19.8332 17.1429H14.8748C14.4838 17.1429 14.1665 16.8229 14.1665 16.4286C14.1665 16.0343 14.4838 15.7143 14.8748 15.7143H19.2679L22.4866 1.42857H6.37484C5.98384 1.42857 5.6665 1.10857 5.6665 0.714286C5.6665 0.32 5.98384 0 6.37484 0H23.3748C23.5902 0 23.7942 0.0985717 23.9288 0.268572C24.0633 0.437143 24.1143 0.66 24.0662 0.871429L20.5245 16.5857C20.4508 16.9129 20.1633 17.1429 19.8332 17.1429Z" fill="#272829"/>
</svg>
