<svg width="25" height="27" viewBox="0 0 25 27" fill="none" xmlns="http://www.w3.org/2000/svg">
<path d="M22.365 11.1609H22.2974V9.52356C22.2974 4.26385 17.9869 0 12.6694 0C7.35187 0 3.0413 4.26385 3.0413 9.52356V11.1609H2.63593C1.14947 11.1609 0.000878293 12.4641 0.000878293 13.9679V18.1449C-0.0365611 19.6024 1.12762 20.8139 2.60107 20.8509C2.61271 20.8512 2.62429 20.8514 2.63593 20.8516H5.13583C5.48992 20.8351 5.76351 20.5378 5.74683 20.1875C5.74624 20.1749 5.74527 20.1623 5.74392 20.1498V11.9629C5.74392 11.5619 5.50745 11.1609 5.13583 11.1609H4.39261V9.52349C4.39261 5.00201 8.09827 1.33658 12.6694 1.33658C17.2405 1.33658 20.9461 5.00201 20.9461 9.52349V11.1609H20.2029C19.8313 11.1609 19.5948 11.5618 19.5948 11.9629V20.1498C19.5571 20.4984 19.8123 20.8113 20.1648 20.8486C20.1774 20.85 20.1902 20.8509 20.2029 20.8515H20.9799L20.9123 20.9517C19.8986 22.2843 18.3079 23.0648 16.6219 23.0569C16.2528 21.2667 14.4864 20.1114 12.6765 20.4766C11.1289 20.7888 10.013 22.1295 10.0005 23.6918C10.019 25.5243 11.5261 27.0001 13.3788 27C14.2959 26.9853 15.17 26.613 15.8111 25.9641C16.2436 25.526 16.5271 24.9652 16.6219 24.3601C18.7333 24.368 20.7244 23.3894 21.9933 21.7203L22.6352 20.7846C24.0879 20.6844 25 19.7821 25 18.4789V14.3019C25.0001 12.8652 23.919 11.1609 22.365 11.1609ZM4.39261 19.5149H2.63593C1.90848 19.4974 1.33311 18.8999 1.35083 18.1804C1.35115 18.1686 1.35161 18.1567 1.35219 18.1448V13.9678C1.35219 13.1993 1.8927 12.4975 2.63593 12.4975H4.39261V19.5149ZM14.8315 25.0286C14.4571 25.4301 13.9311 25.66 13.3788 25.6635C12.2797 25.6462 11.3878 24.7787 11.3519 23.6919C11.3514 22.603 12.2434 21.72 13.3442 21.7196C14.4451 21.7191 15.3378 22.6014 15.3382 23.6903C15.3382 23.6908 15.3382 23.6914 15.3382 23.6919C15.3664 24.188 15.1825 24.6731 14.8315 25.0286ZM23.6488 18.479C23.6488 19.3812 22.7704 19.5149 22.365 19.5149H20.9461V12.4976H22.365C23.1082 12.4976 23.6488 13.5335 23.6488 14.302V18.479Z" fill="#272829"/>
</svg>
