<svg width="19" height="20" viewBox="0 0 19 20" fill="none" xmlns="http://www.w3.org/2000/svg">
<path fill-rule="evenodd" clip-rule="evenodd" d="M13.4189 19H5.57253C2.69037 19 0.479285 17.9629 1.10734 13.7886L1.83863 8.13146C2.22578 6.04861 3.55932 5.25146 4.72939 5.25146H14.2964C15.4837 5.25146 16.7398 6.10861 17.1872 8.13146L17.9185 13.7886C18.4519 17.4914 16.301 19 13.4189 19Z" stroke="#122940" stroke-width="2" stroke-linecap="round" stroke-linejoin="round"/>
<path d="M13.5471 5.04574C13.5471 2.81136 11.729 1.00004 9.48624 1.00004V1.00004C8.40626 0.995477 7.36895 1.41971 6.60367 2.17892C5.83839 2.93813 5.40819 3.96978 5.4082 5.04574H5.4082" stroke="#122940" stroke-width="2" stroke-linecap="round" stroke-linejoin="round"/>
<path d="M13.1006 9.5501H13.0559" stroke="#122940" stroke-width="2.5" stroke-linecap="round" stroke-linejoin="round"/>
<path d="M5.94435 9.5501H5.89961" stroke="#122940" stroke-width="2.5" stroke-linecap="round" stroke-linejoin="round"/>
</svg>
