<svg width="30" height="28" viewBox="0 0 30 28" fill="none" xmlns="http://www.w3.org/2000/svg">
<path d="M25.9693 4.10139C23.3707 1.45716 19.9141 0 16.2414 0C12.5009 0 9.00108 1.50112 6.3901 4.22701C6.10617 4.52221 6.11234 4.99955 6.40245 5.29475C6.69256 5.58367 7.16167 5.57739 7.45178 5.28219C9.78499 2.8515 12.9021 1.51368 16.2414 1.51368C23.0127 1.5074 28.5186 7.10992 28.5186 14C28.5186 20.8901 23.0127 26.4926 16.2414 26.4926C9.47019 26.4926 3.97047 20.8901 3.97047 14V13.843L5.18646 15.0866C5.32843 15.231 5.51978 15.3064 5.71113 15.3064C5.90247 15.3064 6.08765 15.231 6.23579 15.0866C6.5259 14.7914 6.5259 14.314 6.23579 14.0188L3.75444 11.4877C3.46433 11.1925 2.99522 11.1925 2.70511 11.4877L0.217581 14.0188C-0.0725271 14.314 -0.0725271 14.7914 0.217581 15.0866C0.50769 15.3818 0.976802 15.3818 1.26691 15.0866L2.48907 13.843V14C2.48907 17.7371 3.92109 21.2544 6.51973 23.8986C9.11836 26.5428 12.575 28 16.2476 28C19.9203 28 23.3769 26.5428 25.9755 23.8986C28.568 21.2544 30 17.7371 30 14C30 10.2629 28.568 6.74563 25.9693 4.10139Z" fill="#272829"/>
<path d="M16.2414 5.24414C15.834 5.24414 15.5007 5.58331 15.5007 5.99784V7.82557H15.0316C13.1613 7.82557 11.6367 9.37694 11.6367 11.28C11.6367 13.1831 13.1613 14.7345 15.0316 14.7345H17.4512C18.5067 14.7345 19.3647 15.6075 19.3647 16.6816C19.3647 17.7556 18.5067 18.6286 17.4512 18.6286H13.0996C12.6922 18.6286 12.3589 18.9678 12.3589 19.3823C12.3589 19.7969 12.6922 20.136 13.0996 20.136H15.5007V21.9889C15.5007 22.4034 15.834 22.7426 16.2414 22.7426C16.6488 22.7426 16.9821 22.4034 16.9821 21.9889V20.136H17.4759C17.4821 20.136 17.4883 20.136 17.4944 20.136C19.3462 20.1109 20.8461 18.5721 20.8461 16.6816C20.8461 14.7785 19.3215 13.2271 17.4512 13.2271H15.0316C13.9761 13.2271 13.1181 12.3541 13.1181 11.28C13.1181 10.206 13.9761 9.33297 15.0316 9.33297H19.303C19.7104 9.33297 20.0437 8.9938 20.0437 8.57927C20.0437 8.16473 19.7104 7.82557 19.303 7.82557H16.9821V5.99784C16.9821 5.58331 16.655 5.24414 16.2414 5.24414Z" fill="#272829"/>
</svg>
